<?xml version="1.0" encoding="UTF-8" standalone="no"?>
<svg
   width="1000"
   height="218.25282"
   viewBox="0 0 999.99996 218.25283"
   version="1.1"
   id="svg19923"
   xml:space="preserve"
   xmlns="http://www.w3.org/2000/svg"
   xmlns:svg="http://www.w3.org/2000/svg"><defs
     id="defs1" /><g
     id="g860"
     transform="matrix(1.1176058,0,0,1.1176058,-19.230685,-143.33234)"><path
       style="fill:#00adef;fill-opacity:1;stroke:none;stroke-width:2.22944;stroke-miterlimit:4;stroke-dasharray:none"
       d="m 449.37009,201.15523 -16.18012,0.0986 0.34545,83.21506 15.73572,0.12359 z"
       id="path8" /><path
       style="fill:#00adef;fill-opacity:1;stroke:none;stroke-width:2.22944;stroke-miterlimit:4;stroke-dasharray:none"
       d="m 733.51729,201.00707 25.80552,83.65945 h 16.25111 l 19.58396,-64.46739 17.5318,64.51679 17.30962,-0.0986 24.49702,-83.61005 h -16.54734 l -16.26963,68.38661 0.56194,2.07999 -19.12727,-70.4666 h -15.10617 l -19.51617,67.47314 -17.63977,-67.47314 z"
       id="path7" /><path
       style="fill:#00adef;fill-opacity:1;stroke:none;stroke-width:2.22944;stroke-miterlimit:4;stroke-dasharray:none"
       d="m 484.38122,214.31717 -0.0956,-13.05396 -15.95792,0.068 -0.068,83.21815 16.23258,0.13909 0.20976,-46.43568 c 0.0442,-9.84329 0.95021,-12.92387 5.84803,-18.55635 3.99031,-4.58876 9.53371,-7.02069 15.50737,-7.02073 12.43861,-0.11641 17.67379,9.2028 17.67379,25.57708 v 46.43568 h 16.02576 l -0.13909,-49.79323 c -1.1e-4,-11.28049 -1.83133,-20.83698 -6.88804,-27.00286 -5.05693,-6.16577 -12.08118,-8.76121 -21.62989,-8.76155 -12.88585,-1.9e-4 -20.82312,6.33792 -26.71877,15.18625 z"
       id="path6" /><path
       style="fill:#00adef;fill-opacity:1;stroke:none;stroke-width:2.22944;stroke-miterlimit:4;stroke-dasharray:none"
       d="m 890.09071,198.88706 c -3.67,7e-5 -7.27522,0.53628 -10.81656,1.61091 -3.54138,1.07505 -6.70609,2.68138 -9.4896,4.81421 -2.78347,2.13309 -5.01283,4.78261 -6.68746,7.94967 -1.67464,3.16716 -2.51207,6.81887 -2.51207,10.95545 0,3.37126 0.44848,6.32262 1.34552,8.8569 0.89711,2.53444 2.22478,4.78991 3.98105,6.7646 1.75631,1.97484 3.90051,3.72264 6.43434,5.24319 2.53388,1.52065 5.47359,3.02766 8.81685,4.52103 2.08158,0.90833 4.15975,1.84286 6.2338,2.80218 2.07394,0.95932 3.78581,1.97053 5.13831,3.03352 1.35224,1.06311 2.40669,2.2447 3.16006,3.54591 0.75334,1.30122 1.12944,2.89259 1.12952,4.77718 -8e-5,6.59614 -4.59379,9.89691 -13.78228,9.89691 -7.27639,0 -14.80827,-2.64189 -22.59599,-7.92495 v 16.67392 c 6.27187,3.70457 13.30553,5.5579 21.10232,5.5579 3.98154,0 7.77169,-0.49685 11.37207,-1.49359 3.6003,-0.99678 6.81336,-2.54559 9.63776,-4.64451 2.82425,-2.09892 5.10168,-4.77358 6.82934,-8.02061 1.72755,-3.24707 2.58917,-7.0224 2.58921,-11.32581 -4e-5,-3.50384 -0.52732,-6.56186 -1.58623,-9.1779 -1.05899,-2.61596 -2.55693,-4.91047 -4.4902,-6.88183 -1.9333,-1.97137 -4.18692,-3.69578 -6.7646,-5.17221 -2.57782,-1.47636 -5.59623,-2.96001 -9.05132,-4.45005 -2.41138,-1.06814 -4.51544,-2.02817 -6.31408,-2.88548 -1.79868,-0.8572 -3.2967,-1.79173 -4.49322,-2.80211 -1.19664,-1.01026 -2.08551,-2.12454 -2.66638,-3.3391 -0.58107,-1.2144 -0.87028,-2.77334 -0.87028,-4.67841 0,-1.45254 0.28498,-2.76688 0.85792,-3.94401 0.57328,-1.17698 1.41071,-2.21042 2.51206,-3.09834 1.10128,-0.88785 2.44498,-1.58544 4.03042,-2.09231 1.58532,-0.50702 3.37908,-0.75916 5.38201,-0.75919 6.60771,3e-5 13.31335,1.97571 20.1117,5.9252 v -15.92092 c -5.83624,-2.87781 -12.01799,-4.31728 -18.54399,-4.31735 z"
       id="path5" /><path
       style="fill:#00adef;fill-opacity:1;stroke:none;stroke-width:2.22944;stroke-miterlimit:4;stroke-dasharray:none"
       d="m 689.75417,198.68939 c -13.33868,7e-5 -23.93726,4.01575 -31.79547,12.04482 -7.85828,8.02915 -11.78562,19.07875 -11.78562,33.15333 0,12.97304 3.7754,23.43277 11.32581,31.37574 7.55032,7.94302 17.66074,11.91519 30.33263,11.91519 12.97799,0 23.3268,-4.08416 31.04558,-12.24847 7.71874,-8.1643 11.57877,-18.93542 11.57885,-32.31393 -8e-5,-13.63528 -3.59078,-24.36574 -10.77026,-32.19049 -7.17963,-7.82453 -17.15766,-11.73612 -29.93152,-11.73619 z m -0.95974,14.21748 c 7.87181,8e-5 13.94578,2.57972 18.21684,7.73976 4.27098,5.16022 6.4035,12.64467 6.40358,22.44789 -8e-5,9.71202 -2.12875,17.1185 -6.39122,22.21946 -4.26259,5.101 -10.34045,7.65033 -18.2292,7.65033 -7.77668,0 -13.98278,-2.60364 -18.62121,-7.80767 -4.63845,-5.20411 -6.95904,-12.45127 -6.95897,-21.7443 -7e-5,-9.6545 2.30105,-17.15312 6.90035,-22.49412 4.5992,-5.34085 10.82495,-8.01127 18.67983,-8.01135 z"
       id="path4" /><path
       style="fill:#00adef;fill-opacity:1;stroke:none;stroke-width:2.22944;stroke-miterlimit:4;stroke-dasharray:none"
       d="m 340.98524,167.82895 -26.91029,96.13944 -25.53699,-96.12705 -18.1336,0.0476 33.62551,116.57826 19.37727,-0.19465 25.20058,-91.55662 25.31173,91.65538 19.35257,0.19427 32.58551,-116.72634 -17.72931,0.0986 -24.35506,97.24723 -25.38886,-97.29663 z"
       id="path3" /><path
       style="fill:#00adef;fill-opacity:1;stroke:none;stroke-width:2.22944;stroke-miterlimit:4;stroke-dasharray:none"
       d="m 616.62423,161.42851 v 47.06214 c -5.22898,-6.39402 -12.92179,-9.60371 -23.09904,-9.60374 -11.97449,3e-5 -21.52566,4.25809 -28.65079,12.77616 -7.12513,8.51833 -10.68692,19.74689 -10.68692,33.68416 0,13.04946 3.2262,23.4136 9.67778,31.09493 6.45158,7.68139 15.1383,11.52328 26.06167,11.52328 11.6764,0 20.57322,-4.00509 26.6973,-12.00778 v 10.08824 h 16.72328 V 161.42853 Z m -21.41401,51.77165 c 6.1573,8e-5 11.26515,2.13045 15.32527,6.39118 4.06004,4.26089 6.08867,9.48613 6.08874,15.67404 v 12.08799 c -7e-5,7.68483 -2.12666,13.98852 -6.37886,18.91434 -4.25235,4.92589 -9.74415,7.39105 -16.47633,7.39105 -6.83096,0 -12.29556,-2.54846 -16.39306,-7.64103 -4.09757,-5.0925 -6.14438,-12.19555 -6.1443,-21.30905 -8e-5,-10.00819 2.14847,-17.76041 6.44674,-23.25955 4.29819,-5.49898 10.14293,-8.24889 17.5318,-8.24897 z"
       id="path1" /><path
       style="fill:#00adef;fill-opacity:1;stroke:none;stroke-width:2.22944;stroke-miterlimit:4;stroke-dasharray:none"
       d="m 442.05614,161.36881 c -2.85752,1.9e-4 -5.2845,0.98279 -7.28304,2.94716 -1.99858,1.96468 -2.99962,4.3815 -2.99962,7.24914 0,2.90868 0.99163,5.3213 2.97494,7.23983 1.98327,1.91875 4.41955,2.8794 7.30772,2.87928 2.91197,1.2e-4 5.38239,-0.99401 7.40651,-2.9842 2.02405,-1.98992 3.03353,-4.36913 3.03356,-7.13491 -3e-5,-2.85404 -1.01472,-5.26526 -3.04898,-7.23678 -2.03433,-1.97125 -4.49953,-2.95933 -7.39109,-2.95952 z"
       id="path3037" /><g
       id="Winlogo"
       style="display:inline;fill:#00adef;fill-opacity:1"
       transform="matrix(4.6141827,0,0,4.6141827,17.207038,128.24946)"><polygon
         id="svg_23"
         points="41.727,0 18.502,3.389 18.502,20.219 41.727,20.219 "
         style="fill:#00adef;fill-opacity:1" /><polygon
         id="svg_24"
         points="0,6.087 0,20.219 16.865,20.219 16.865,3.627 "
         style="fill:#00adef;fill-opacity:1" /><polygon
         id="svg_25"
         points="0,36.167 16.865,38.655 16.865,21.855 0,21.855 "
         style="fill:#00adef;fill-opacity:1" /><polygon
         id="svg_26"
         points="41.727,42.323 41.727,21.855 18.502,21.855 18.502,38.897 "
         style="fill:#00adef;fill-opacity:1" /></g></g></svg>
